<svg version="1.1" id="Layer_1" xmlns="http://www.w3.org/2000/svg" xmlns:xlink="http://www.w3.org/1999/xlink" x="0px" y="0px"
	 width="100%" viewBox="0 0 105 101" enable-background="new 0 0 105 101" xml:space="preserve">
<path fill="#FAF9F7" opacity="1.000000" stroke="none" 
	d="
M65.000000,102.000000 
	C43.333332,102.000000 22.166666,102.000000 1.000000,102.000000 
	C1.000000,68.333336 1.000000,34.666668 1.000000,1.000000 
	C36.000000,1.000000 71.000000,1.000000 106.000000,1.000000 
	C106.000000,34.666668 106.000000,68.333336 106.000000,102.000000 
	C92.500000,102.000000 79.000000,102.000000 65.000000,102.000000 
M44.795200,4.089593 
	C18.160061,10.484552 2.724471,33.197514 8.155105,59.271202 
	C12.068208,78.058891 24.038013,90.303429 42.635727,94.805473 
	C61.000214,99.251053 77.073143,93.993507 89.260536,79.407570 
	C102.111038,64.028030 103.580345,43.613991 93.913422,26.713209 
	C84.124626,9.599347 65.839798,0.993412 44.795200,4.089593 
z"/>
<path fill="#F5C147" opacity="1.000000" stroke="none" 
	d="
M45.223137,4.043828 
	C65.839798,0.993412 84.124626,9.599347 93.913422,26.713209 
	C103.580345,43.613991 102.111038,64.028030 89.260536,79.407570 
	C77.073143,93.993507 61.000214,99.251053 42.635727,94.805473 
	C24.038013,90.303429 12.068208,78.058891 8.155105,59.271202 
	C2.724471,33.197514 18.160061,10.484552 45.223137,4.043828 
M47.001003,43.998943 
	C47.001003,43.998943 46.984375,43.976948 46.254604,43.937908 
	C45.178730,44.325092 44.102852,44.712276 42.234383,45.051785 
	C41.182472,45.142887 40.130562,45.233994 38.261787,45.102119 
	C36.576046,45.226158 34.890308,45.350201 33.204567,45.474243 
	C32.949043,46.031456 32.693520,46.588669 32.437996,47.145882 
	C35.949612,49.791500 39.461227,52.437119 42.986519,55.798264 
	C42.996490,56.515770 43.006462,57.233276 42.296715,58.099098 
	C40.875793,61.732864 39.454872,65.366631 37.742916,69.624268 
	C38.039852,73.481651 40.092083,74.457451 43.805992,71.350388 
	C50.582962,65.680756 56.802223,65.475235 63.224720,71.527580 
	C63.342350,71.638443 63.495361,71.753281 63.647076,71.780037 
	C65.185905,72.051552 66.727921,72.305092 68.269035,72.563675 
	C68.183228,71.043106 68.097427,69.522545 67.994537,67.223740 
	C66.995216,64.467697 65.995895,61.711651 64.991516,58.147644 
	C64.984634,57.065704 64.977753,55.983768 65.347237,54.707664 
	C65.347237,54.707664 65.757607,54.603069 66.134331,55.194786 
	C69.555916,52.771141 72.977501,50.347500 76.399086,47.923851 
	C75.633163,47.276894 74.867233,46.629936 73.583237,45.518299 
	C72.690178,45.449074 71.797127,45.379848 70.128197,45.158306 
	C69.075569,45.144806 68.022949,45.131302 66.445015,44.537193 
	C64.313240,44.338566 62.181465,44.139938 60.021236,43.946342 
	C60.021236,43.946342 60.033096,43.972290 59.949493,43.237988 
	C58.885509,40.688972 57.967468,38.064690 56.705563,35.617744 
	C55.881992,34.020767 54.559200,32.681240 53.460030,31.226393 
	C52.362026,32.837902 51.264019,34.449409 49.939686,36.743259 
	C49.575180,38.105259 49.210678,39.467262 48.508793,41.173428 
	C48.289604,41.418995 48.146461,41.702904 47.881954,42.398220 
	C47.881954,42.398220 47.845089,42.818691 47.479153,43.146351 
	C47.245480,43.385242 47.079124,43.664265 47.001003,43.998943 
z"/>
<path fill="#FFFDD3" opacity="1.000000" stroke="none" 
	d="
M39.078651,45.325100 
	C40.130562,45.233994 41.182472,45.142887 42.840561,45.316124 
	C44.282757,45.699501 45.118767,45.818539 46.133453,46.267662 
	C50.812981,50.733341 56.195179,48.721409 61.262177,48.582733 
	C61.868416,48.566139 62.429226,46.889484 63.368286,45.978630 
	C64.807091,45.689247 65.888702,45.403522 66.970322,45.117798 
	C68.022949,45.131302 69.075569,45.144806 70.543724,45.603325 
	C70.992470,47.055401 71.025688,48.062462 70.885880,49.327541 
	C69.833611,50.077972 68.954369,50.570385 67.652222,51.045879 
	C57.062050,53.074230 47.012035,53.855267 37.249275,48.393780 
	C37.945724,47.225517 38.512188,46.275311 39.078651,45.325100 
z"/>
<path fill="#FCF1AE" opacity="1.000000" stroke="none" 
	d="
M38.670219,45.213608 
	C38.512188,46.275311 37.945724,47.225517 37.249275,48.393780 
	C47.012035,53.855267 57.062050,53.074230 67.515442,51.325172 
	C67.120239,52.615276 66.438927,53.609173 65.757607,54.603073 
	C65.757607,54.603069 65.347237,54.707664 64.772163,54.837799 
	C57.139637,58.203571 50.066494,58.539131 42.972843,55.082737 
	C39.461227,52.437119 35.949612,49.791500 32.437996,47.145882 
	C32.693520,46.588669 32.949043,46.031456 33.204567,45.474243 
	C34.890308,45.350201 36.576046,45.226158 38.670219,45.213608 
z"/>
<path fill="#FFFFE6" opacity="1.000000" stroke="none" 
	d="
M63.011093,45.982285 
	C62.429226,46.889484 61.868416,48.566139 61.262177,48.582733 
	C56.195179,48.721409 50.812981,50.733341 46.259262,46.020172 
	C46.465721,44.954048 46.725048,44.465496 46.984375,43.976948 
	C46.984375,43.976948 47.001003,43.998943 47.246101,43.898346 
	C47.609165,43.471397 47.727127,43.145042 47.845089,42.818691 
	C47.845089,42.818691 47.881954,42.398220 48.216843,42.097237 
	C48.649879,41.473923 48.748024,41.151592 48.846176,40.829262 
	C49.210678,39.467262 49.575180,38.105259 50.385021,36.324692 
	C51.852238,35.247601 52.874115,34.589077 53.530056,34.166370 
	C55.867954,37.691685 57.950527,40.831985 60.033096,43.972290 
	C60.033096,43.972290 60.021236,43.946342 60.054024,44.299179 
	C61.061577,45.095440 62.036335,45.538864 63.011093,45.982285 
z"/>
<path fill="#FCDD48" opacity="1.000000" stroke="none" 
	d="
M42.979683,55.440498 
	C50.066494,58.539131 57.139637,58.203571 64.583984,54.934879 
	C64.977753,55.983768 64.984634,57.065704 64.848389,58.884521 
	C63.794266,64.062721 59.348042,62.115730 56.665184,63.892441 
	C55.958027,63.865299 55.553978,63.848679 55.026367,63.486671 
	C53.414310,62.987610 51.850983,62.465317 50.451355,62.749443 
	C46.270226,63.598213 43.593666,62.502850 43.016434,57.950783 
	C43.006462,57.233276 42.996490,56.515770 42.979683,55.440498 
z"/>
<path fill="#DD9F1E" opacity="1.000000" stroke="none" 
	d="
M55.149925,63.832062 
	C55.553978,63.848679 55.958027,63.865299 56.865517,64.187271 
	C60.916508,65.662407 64.464066,66.832191 68.011620,68.001976 
	C68.097427,69.522545 68.183228,71.043106 68.269035,72.563675 
	C66.727921,72.305092 65.185905,72.051552 63.647076,71.780037 
	C63.495361,71.753281 63.342350,71.638443 63.224720,71.527580 
	C56.802223,65.475235 50.582962,65.680756 43.805992,71.350388 
	C40.092083,74.457451 38.039852,73.481651 38.255180,69.265160 
	C44.228275,67.214722 49.689098,65.523392 55.149925,63.832062 
z"/>
<path fill="#F6B620" opacity="1.000000" stroke="none" 
	d="
M55.026367,63.486675 
	C49.689098,65.523392 44.228275,67.214722 38.400700,68.953224 
	C39.454872,65.366631 40.875793,61.732864 42.656574,58.024940 
	C43.593666,62.502850 46.270226,63.598213 50.451355,62.749443 
	C51.850983,62.465317 53.414310,62.987610 55.026367,63.486675 
z"/>
<path fill="#F6B620" opacity="1.000000" stroke="none" 
	d="
M68.003082,67.612854 
	C64.464066,66.832191 60.916508,65.662407 57.168625,64.197792 
	C59.348042,62.115730 63.794266,64.062721 64.850922,59.288506 
	C65.995895,61.711651 66.995216,64.467697 68.003082,67.612854 
z"/>
<path fill="#FFEEB9" opacity="1.000000" stroke="none" 
	d="
M59.991295,43.605141 
	C57.950527,40.831985 55.867954,37.691685 53.530056,34.166370 
	C52.874115,34.589077 51.852238,35.247601 50.498184,35.983521 
	C51.264019,34.449409 52.362026,32.837902 53.460030,31.226391 
	C54.559200,32.681240 55.881992,34.020767 56.705563,35.617744 
	C57.967468,38.064690 58.885509,40.688972 59.991295,43.605141 
z"/>
<path fill="#E5BB55" opacity="1.000000" stroke="none" 
	d="
M65.945969,54.898930 
	C66.438927,53.609173 67.120239,52.615276 67.938339,51.342087 
	C68.954369,50.570385 69.833611,50.077972 71.219330,49.280540 
	C72.517632,47.978008 73.309471,46.980492 74.101311,45.982979 
	C74.867233,46.629936 75.633163,47.276894 76.399086,47.923851 
	C72.977501,50.347500 69.555916,52.771141 65.945969,54.898930 
z"/>
<path fill="#FCF1AE" opacity="1.000000" stroke="none" 
	d="
M63.368286,45.978630 
	C62.036335,45.538864 61.061577,45.095440 60.068253,44.296661 
	C62.181465,44.139938 64.313240,44.338566 66.707672,44.827496 
	C65.888702,45.403522 64.807091,45.689247 63.368286,45.978630 
z"/>
<path fill="#FCF1AE" opacity="1.000000" stroke="none" 
	d="
M73.842270,45.750637 
	C73.309471,46.980492 72.517632,47.978008 71.392349,49.022522 
	C71.025688,48.062462 70.992470,47.055401 70.931656,45.679482 
	C71.797127,45.379848 72.690178,45.449074 73.842270,45.750637 
z"/>
<path fill="#FCF1AE" opacity="1.000000" stroke="none" 
	d="
M46.619492,43.957428 
	C46.725048,44.465496 46.465721,44.954048 46.080589,45.690086 
	C45.118767,45.818539 44.282757,45.699501 43.236862,45.339962 
	C44.102852,44.712276 45.178730,44.325092 46.619492,43.957428 
z"/>
<path fill="#FCF1AE" opacity="1.000000" stroke="none" 
	d="
M48.677483,41.001343 
	C48.748024,41.151592 48.649879,41.473923 48.315548,41.910698 
	C48.146461,41.702904 48.289604,41.418995 48.677483,41.001343 
z"/>
<path fill="#FCF1AE" opacity="1.000000" stroke="none" 
	d="
M47.662121,42.982521 
	C47.727127,43.145042 47.609165,43.471397 47.235641,43.890587 
	C47.079124,43.664265 47.245480,43.385242 47.662121,42.982521 
z"/>
</svg>